<?xml version="1.0" encoding="utf-8"?>
<!-- Generator: Adobe Illustrator 19.1.0, SVG Export Plug-In . SVG Version: 6.00 Build 0)  -->
<svg version="1.1" id="Layer_1" xmlns="http://www.w3.org/2000/svg" xmlns:xlink="http://www.w3.org/1999/xlink" x="0px" y="0px"
	 viewBox="0 0 88.7 29" style="enable-background:new 0 0 88.7 29;" xml:space="preserve">
<style type="text/css">
	.st0{clip-path:url(#SVGID_2_);}
	.st1{clip-path:url(#SVGID_2_);fill:#FFFFFF;}
</style>
<g>
	<defs>
		<rect id="SVGID_1_" x="0.8" y="4" width="87.2" height="21"/>
	</defs>
	<clipPath id="SVGID_2_">
		<use xlink:href="#SVGID_1_"  style="overflow:visible;"/>
	</clipPath>
	<path class="st0" d="M87.9,23.3c0-0.8-0.4-1.3-1.1-1.3c-0.7,0-1.1,0.5-1.1,1.3c0,0.8,0.4,1.3,1.1,1.3
		C87.5,24.6,87.9,24.1,87.9,23.3 M85.8,23.3c0-0.6,0.3-1.1,0.9-1.1c0.6,0,0.9,0.6,0.9,1.1c0,0.6-0.3,1.1-0.9,1.1
		C86.1,24.4,85.8,23.8,85.8,23.3 M82.4,24.6v-2.4h0l1,2.4h0.2l1-2.4h0v2.4h0.2V22h-0.4l-1,2.2l-1-2.2h-0.4v2.6H82.4z M80,24.3
		L79.9,25h0.2l0.3-0.7H80z M78.7,24.6h0.2l0-2.3h0.8V22h-1.9v0.2h0.8L78.7,24.6z M77.3,22h-0.2v2.6h0.2V22z M73.8,24.6v-2.4h0l1,2.4
		H75l1-2.4h0v2.4h0.2V22h-0.4l-1,2.2l-1-2.2h-0.4v2.6H73.8z M70.3,24.6v-2.4h0l1,2.4h0.2l1-2.4h0v2.4h0.2V22h-0.4l-1,2.2l-1-2.2H70
		v2.6H70.3z M67.4,22v1.7c0,0.5,0.3,1,0.9,1c0.6,0,0.9-0.4,0.9-1V22H69v1.7c0,0.5-0.3,0.7-0.7,0.7c-0.4,0-0.7-0.3-0.7-0.7V22H67.4z
		 M66.7,23.9c0-0.9-1.4-0.6-1.4-1.3c0-0.3,0.3-0.4,0.6-0.4c0.3,0,0.5,0.1,0.6,0.4h0.2c-0.1-0.5-0.5-0.6-0.8-0.6
		c-0.4,0-0.8,0.2-0.8,0.7c0,0.6,0.6,0.7,1,0.8c0.2,0.1,0.4,0.2,0.4,0.4c0,0.3-0.3,0.5-0.6,0.5c-0.3,0-0.6-0.1-0.6-0.5h-0.2
		c0,0.4,0.4,0.7,0.8,0.7C66.2,24.6,66.7,24.4,66.7,23.9 M63.3,23.9c0-0.9-1.4-0.6-1.4-1.3c0-0.3,0.3-0.4,0.6-0.4
		c0.3,0,0.5,0.1,0.6,0.4h0.2c-0.1-0.5-0.5-0.6-0.8-0.6c-0.4,0-0.8,0.2-0.8,0.7c0,0.6,0.6,0.7,1,0.8c0.2,0.1,0.4,0.2,0.4,0.4
		c0,0.3-0.3,0.5-0.6,0.5c-0.3,0-0.6-0.1-0.6-0.5h-0.2c0,0.4,0.4,0.7,0.8,0.7C62.8,24.6,63.3,24.4,63.3,23.9 M60.1,24.6h0.2l0-2.3
		h0.8V22h-1.9v0.2h0.8L60.1,24.6z M59.2,24.6v-0.2h-1.3V22h-0.2v2.6H59.2z M57,23.3c0-0.8-0.4-1.3-1.1-1.3c-0.7,0-1.1,0.5-1.1,1.3
		c0,0.8,0.4,1.3,1.1,1.3C56.6,24.6,57,24.1,57,23.3 M54.9,23.3c0-0.6,0.3-1.1,0.9-1.1c0.6,0,0.9,0.6,0.9,1.1c0,0.6-0.3,1.1-0.9,1.1
		C55.2,24.4,54.9,23.8,54.9,23.3 M52.3,24.6v-1.2h1.4v1.2H54V22h-0.2v1.1h-1.4V22h-0.2v2.6H52.3z M49.5,24.9h0.2l0.9-2.9h-0.2
		L49.5,24.9z M48.1,24.6v-0.2h-1.3v-1H48v-0.2h-1.2v-0.9h1.3V22h-1.5v2.6H48.1z M45.9,23.9c0-0.9-1.4-0.6-1.4-1.3
		c0-0.3,0.3-0.4,0.6-0.4c0.3,0,0.5,0.1,0.6,0.4h0.2c-0.1-0.5-0.5-0.6-0.8-0.6c-0.4,0-0.8,0.2-0.8,0.7c0,0.6,0.6,0.7,1,0.8
		c0.2,0.1,0.4,0.2,0.4,0.4c0,0.3-0.3,0.5-0.6,0.5c-0.3,0-0.6-0.1-0.6-0.5h-0.2c0,0.4,0.4,0.7,0.8,0.7C45.4,24.6,45.9,24.4,45.9,23.9
		 M42,23.3h0.6c0.5,0,0.5,0.1,0.6,0.7c0,0.2,0,0.4,0.1,0.5h0.3c-0.1-0.2-0.1-0.3-0.1-0.8c0-0.3-0.1-0.5-0.4-0.6v0
		c0.3-0.1,0.5-0.3,0.5-0.5c0-0.2-0.1-0.4-0.3-0.5C43,22,42.8,22,42.6,22h-0.8v2.6H42V23.3z M42,23.1v-0.9h0.5c0.2,0,0.7,0,0.7,0.5
		c0,0.4-0.4,0.5-0.7,0.5H42z M39.1,22v1.7c0,0.5,0.3,1,0.9,1c0.6,0,0.9-0.4,0.9-1V22h-0.2v1.7c0,0.5-0.3,0.7-0.7,0.7
		c-0.4,0-0.7-0.3-0.7-0.7V22H39.1z M38.4,23.3c0-0.8-0.4-1.3-1.1-1.3c-0.7,0-1.1,0.5-1.1,1.3c0,0.8,0.4,1.3,1.1,1.3
		C38,24.6,38.4,24.1,38.4,23.3 M36.3,23.3c0-0.6,0.3-1.1,0.9-1.1c0.6,0,0.9,0.6,0.9,1.1c0,0.6-0.3,1.1-0.9,1.1
		C36.6,24.4,36.3,23.8,36.3,23.3 M35.5,22.6c0-0.5-0.4-0.7-0.9-0.7c-0.8,0-1.1,0.6-1.1,1.3c0,0.7,0.3,1.3,1.1,1.3
		c0.4,0,0.8-0.2,0.9-0.7h-0.2c-0.1,0.3-0.3,0.5-0.6,0.5c-0.7,0-0.9-0.6-0.9-1.1c0-0.5,0.2-1.1,0.9-1.1c0.3,0,0.6,0.1,0.6,0.4H35.5z
		 M30.8,24.6v-1.2h1.2v-0.2h-1.2v-0.9H32V22h-1.4v2.6H30.8z M29.9,24.6v-0.2h-1.3V22h-0.2v2.6H29.9z M27.7,23.3
		c0-0.8-0.4-1.3-1.1-1.3c-0.7,0-1.1,0.5-1.1,1.3c0,0.8,0.4,1.3,1.1,1.3C27.3,24.6,27.7,24.1,27.7,23.3 M25.7,23.3
		c0-0.6,0.3-1.1,0.9-1.1c0.6,0,0.9,0.6,0.9,1.1c0,0.6-0.3,1.1-0.9,1.1C25.9,24.4,25.7,23.8,25.7,23.3 M23.9,23.3v0.2h0.6v0.8
		c-0.2,0.1-0.4,0.1-0.6,0.1c-0.7,0-1-0.5-1-1.1c0-0.5,0.2-1.1,0.8-1.1c0.3,0,0.6,0.1,0.6,0.5h0.3c0-0.5-0.5-0.7-0.9-0.7
		c-0.7,0-1.1,0.7-1.1,1.3c0,0.8,0.4,1.3,1.1,1.3c0.3,0,0.6,0,0.9-0.2v-1.2H23.9z M19.1,22v2.6h0.7c0.8,0,1.3-0.4,1.3-1.3
		c0-0.8-0.5-1.3-1.3-1.3H19.1z M19.3,24.3v-2.1h0.4c0.7,0,1.2,0.3,1.2,1.1c0,0.6-0.3,1.1-1,1.1H19.3z M18.3,23.3
		c0-0.8-0.4-1.3-1.1-1.3c-0.7,0-1.1,0.5-1.1,1.3c0,0.8,0.4,1.3,1.1,1.3C17.9,24.6,18.3,24.1,18.3,23.3 M16.3,23.3
		c0-0.6,0.3-1.1,0.9-1.1c0.6,0,0.9,0.6,0.9,1.1c0,0.6-0.3,1.1-0.9,1.1C16.6,24.4,16.3,23.8,16.3,23.3 M15.4,23.3
		c0-0.8-0.4-1.3-1.1-1.3c-0.7,0-1.1,0.5-1.1,1.3c0,0.8,0.4,1.3,1.1,1.3C15,24.6,15.4,24.1,15.4,23.3 M13.4,23.3
		c0-0.6,0.3-1.1,0.9-1.1c0.6,0,0.9,0.6,0.9,1.1c0,0.6-0.3,1.1-0.9,1.1C13.7,24.4,13.4,23.8,13.4,23.3 M11,22.2L11,22.2l0.8,2.3h0.3
		l0.7-2.6h-0.2l-0.6,2.3h0L11.2,22h-0.3l-0.7,2.3h0L9.5,22H9.3l0.7,2.6h0.3L11,22.2z M9.1,24.6v-0.2H7.8V22H7.6v2.6H9.1z M6.8,22
		H6.5v2.6h0.2V22z M3.9,24.6l0.3-0.7h1.3l0.3,0.7H6l-1-2.6H4.7l-1,2.6H3.9z M4.2,23.7l0.6-1.4l0.6,1.4H4.2z M1.6,23.3h0.6
		c0.5,0,0.5,0.1,0.6,0.7c0,0.2,0,0.4,0.1,0.5h0.3C3,24.4,3.1,24.2,3,23.8c0-0.3-0.1-0.5-0.4-0.6v0c0.3-0.1,0.5-0.3,0.5-0.5
		c0-0.2-0.1-0.4-0.3-0.5C2.6,22,2.4,22,2.2,22H1.4v2.6h0.2V23.3z M1.6,23.1v-0.9h0.5c0.2,0,0.7,0,0.7,0.5c0,0.4-0.4,0.5-0.7,0.5H1.6
		z"/>
	<path class="st1" d="M86.3,13.4c-1.7,0-1.9,1.6-1.9,2.9c0,1.2,0.4,2.4,1.8,2.4c1,0,1.6-0.8,1.6-1.7c0-1-0.6-1.7-1.6-1.7
		c-0.6,0-1.1,0.3-1.4,0.8h0c0-1,0.1-2.3,1.4-2.3c0.5,0,1,0.3,1,0.9h0.5C87.8,13.8,87.2,13.4,86.3,13.4 M86.3,15.7
		c0.8,0,1.1,0.6,1.1,1.3c0,0.7-0.4,1.3-1.2,1.3c-0.7,0-1.2-0.6-1.2-1.2C85.1,16.3,85.5,15.7,86.3,15.7 M81.2,14.8
		c0.4-0.2,0.8-0.4,1.2-0.8v4.6h0.5v-5.2h-0.5c-0.3,0.3-0.7,0.6-1.2,0.8V14.8z M78.5,13.4c-1.4,0-1.7,1.4-1.7,2.7
		c0,1.3,0.3,2.7,1.7,2.7s1.7-1.4,1.7-2.7C80.2,14.8,79.9,13.4,78.5,13.4 M78.5,13.8c1.1,0,1.2,1.5,1.2,2.2c0,0.8-0.1,2.2-1.2,2.2
		s-1.2-1.5-1.2-2.2C77.3,15.3,77.4,13.8,78.5,13.8 M75.9,18.7v-0.4h-2.7c0.8-0.8,2.6-2.3,2.6-3.5c0-0.9-0.7-1.3-1.5-1.3
		c-0.9,0-1.6,0.6-1.6,1.5h0.5c0-0.6,0.4-1,1-1c0.6,0,1,0.3,1,0.9c0,0.9-2,2.8-2.6,3.4v0.5H75.9z M68,19.4h0.5l1.9-6.1h-0.5L68,19.4z
		 M63.9,14.6l-2,4.1h1.4l1.9-4.1v-1h-4.1v1H63.9z M58.8,13.5c-0.4,0.4-0.9,0.7-1.5,0.8v1.1c0.4-0.1,0.9-0.4,1.3-0.6v3.8H60v-5.2
		H58.8z M53.5,18.7v-1h-2.6v-1.1h2.4v-1h-2.4v-1.1h2.6v-1h-4.1v5.4H53.5z M43.2,18.7h1.3v-4.1h0l1.8,4.1h2.1v-5.4h-1.3v4l0,0l-1.8-4
		h-2.1V18.7z M40.6,13.3v3.3c0,0.7-0.4,1.1-1.1,1.1c-0.7,0-1.1-0.4-1.1-1.1v-3.3H37v3.4c0,1.5,1.2,2.1,2.6,2.1
		c1.4,0,2.6-0.6,2.6-2.1v-3.4H40.6z M34.5,16.9c0,0.1,0,0.8-0.6,0.8c-0.4,0-0.5-0.5-0.5-0.8h-1.5c-0.1,1.3,0.8,1.8,2,1.8
		c1,0,2-0.5,2-1.7v-3.8h-1.5V16.9z M27.6,19.4h0.5l1.9-6.1h-0.5L27.6,19.4z M23.2,18.7h0.5v-2.3l2-3h-0.5l-1.6,2.6l-1.6-2.6h-0.6
		l2,3.1V18.7z M17.3,18.7l0.6-1.5h2.7l0.6,1.5h0.5l-2.1-5.4H19l-2.1,5.4H17.3z M18.1,16.8l1.2-3l1.2,3H18.1z M12.2,13.3v5.4h1.5
		c1.8,0,2.8-0.9,2.8-2.7s-1-2.7-2.8-2.7H12.2z M12.7,18.2v-4.5h0.8c1.5,0,2.5,0.7,2.5,2.2c0,1.4-0.6,2.2-2.1,2.2H12.7z M10.8,13.3
		h-0.5v5.4h0.5V13.3z M5.9,16.1h1.3c1,0,1,0.2,1.2,1.4c0,0.4,0.1,0.8,0.2,1.1h0.6c-0.2-0.3-0.2-0.7-0.3-1.6C8.8,16.4,8.6,16,8,15.9
		v0c0.6-0.2,1-0.6,1-1.2c0-0.5-0.2-0.9-0.6-1.1c-0.4-0.3-0.8-0.3-1.3-0.3H5.4v5.4h0.5V16.1z M5.9,15.7v-1.9H7c0.5,0,1.5-0.1,1.5,1
		c0,0.9-0.8,1-1.5,1H5.9z M1.8,18.7v-2.6h2.5v-0.4H1.8v-1.9h2.6v-0.4h-3v5.4H1.8z"/>
	<path class="st1" d="M87.7,6.1h-0.9l0.3-1.2L87,4.9l-0.8,0.5l-0.2,0.7h-0.5l-0.2,0.3l0,0.1H86l-0.4,2.1c-0.2,0.8,0,1.1,0.2,1.1
		c0.4,0,1.1-0.5,1.4-0.9L87,8.6C86.8,8.7,86.5,9,86.4,9c-0.1,0-0.1-0.1,0-0.5l0.4-2l0.7,0L87.7,6.1z M84.3,8.6
		c-0.2,0.2-0.4,0.3-0.5,0.3s-0.1-0.1,0-0.3c0.1-0.5,0.2-1,0.3-1.5c0.2-1,0-1.2-0.2-1.2c-0.2,0-0.4,0.1-0.6,0.2
		c-0.3,0.2-0.8,0.6-1.2,1.2h0l0.1-0.5C82.4,6.2,82.3,6,82.1,6c-0.3,0-0.7,0.3-1.2,0.8L80.9,7c0.2-0.2,0.4-0.3,0.5-0.3
		c0.1,0,0.1,0.1,0,0.3c-0.2,0.9-0.4,1.8-0.6,2.6l0.1,0.1c0.2-0.1,0.5-0.1,0.8-0.2C81.8,9,81.9,8.4,82,8c0.3-0.6,1.1-1.4,1.4-1.4
		c0.1,0,0.1,0.1,0,0.5c-0.1,0.6-0.3,1.1-0.4,1.7c-0.1,0.6,0,0.8,0.2,0.8c0.2,0,0.7-0.2,1.3-0.8L84.3,8.6z M79,6.3
		c0.1,0,0.3,0.1,0.3,0.4c0,0.4-0.3,0.7-1.2,1c0.1-0.8,0.5-1.2,0.6-1.3C78.8,6.4,78.9,6.3,79,6.3 M79.7,8.5c-0.4,0.4-0.8,0.6-1.1,0.6
		c-0.4,0-0.6-0.4-0.6-0.8c0-0.1,0-0.1,0-0.2c0.8-0.2,2-0.6,2-1.4c0-0.4-0.3-0.7-0.8-0.7c-0.4,0-0.9,0.2-1.2,0.5
		c-0.6,0.5-0.9,1.3-0.9,2c0,0.9,0.5,1.2,0.9,1.2c0.5,0,1.1-0.2,1.8-0.9L79.7,8.5z M76.3,8.6c-0.2,0.2-0.4,0.3-0.5,0.3
		c0,0-0.1-0.1,0-0.2l0.4-1.5c0.2-1.1,0-1.2-0.2-1.2c-0.2,0-0.3,0-0.5,0.2c-0.3,0.2-0.8,0.5-1.3,1.2h0l0.1-0.2c0.2-1,0-1.2-0.2-1.2
		c-0.2,0-0.3,0.1-0.5,0.2c-0.3,0.2-0.8,0.5-1.3,1.3h0l0.1-0.5C72.3,6.3,72.3,6,72,6c-0.3,0-0.8,0.3-1.2,0.8L70.9,7
		c0.2-0.1,0.4-0.3,0.5-0.3c0.1,0,0.1,0.1,0,0.3c-0.2,0.9-0.4,1.7-0.6,2.6l0.1,0.1c0.2-0.1,0.5-0.1,0.8-0.2C71.7,9,71.8,8.4,71.9,8
		c0.2-0.5,1-1.4,1.3-1.4c0.1,0,0.1,0.2,0,0.7C73.2,8,73,8.8,72.8,9.5l0.1,0.1c0.2-0.1,0.5-0.1,0.8-0.2c0.1-0.5,0.2-1,0.3-1.5
		c0.3-0.5,1.1-1.4,1.3-1.4c0.1,0,0.1,0.1,0,0.5l-0.4,1.8c-0.1,0.6,0,0.8,0.2,0.8c0.2,0,0.8-0.3,1.2-0.8L76.3,8.6z M67.5,9
		c-0.1,0-0.2-0.1-0.2-0.5c0-0.7,0.3-1.7,0.8-2c0.1-0.1,0.2-0.1,0.4-0.1c0.2,0,0.4,0.1,0.5,0.1c0,0.2-0.2,0.9-0.3,1.2
		C68.5,8.1,67.8,9,67.5,9 M69.8,8.5c-0.2,0.2-0.5,0.4-0.5,0.4c0,0-0.1-0.1,0-0.3c0.2-0.9,0.4-1.9,0.5-2.5l0,0c-0.1,0-0.2,0-0.4-0.1
		C69.2,6,69,6,68.9,6c-0.6,0-1.2,0.3-1.6,0.7c-0.5,0.5-0.9,1.3-0.9,2c0,0.6,0.2,0.9,0.5,0.9c0.3,0,0.6-0.2,0.8-0.4
		C68,9,68.3,8.7,68.6,8.3h0l-0.1,0.5c-0.1,0.7,0,0.8,0.2,0.8c0.2,0,0.8-0.3,1.3-0.9L69.8,8.5z M65.5,8.6c-0.2,0.2-0.4,0.3-0.5,0.3
		c-0.1,0-0.1-0.1,0-0.3c0.1-0.5,0.2-1,0.3-1.5c0.2-1,0-1.2-0.2-1.2c-0.2,0-0.4,0.1-0.6,0.2c-0.3,0.2-0.8,0.6-1.2,1.2h0l0.1-0.5
		C63.5,6.2,63.4,6,63.2,6c-0.3,0-0.7,0.3-1.2,0.8L62.1,7c0.2-0.2,0.4-0.3,0.5-0.3c0.1,0,0.1,0.1,0,0.3c-0.2,0.9-0.4,1.8-0.6,2.6
		L62,9.6c0.2-0.1,0.5-0.1,0.8-0.2C62.9,9,63,8.4,63.1,8c0.3-0.6,1.1-1.4,1.4-1.4c0.1,0,0.1,0.1,0,0.5c-0.1,0.6-0.3,1.1-0.4,1.7
		c-0.1,0.6,0,0.8,0.2,0.8c0.2,0,0.7-0.2,1.3-0.8L65.5,8.6z M58.6,7c0.2-0.2,0.4-0.3,0.5-0.3c0.1,0,0.1,0.1,0,0.4
		c-0.2,0.8-0.3,1.7-0.5,2.5l0.1,0.1c0.2-0.1,0.5-0.1,0.8-0.2C59.5,9,59.6,8.4,59.7,8c0.1-0.3,0.3-0.6,0.5-0.9
		c0.2-0.2,0.3-0.3,0.3-0.3c0.1,0,0.2,0,0.3,0.1c0.1,0,0.1,0,0.2,0c0.1-0.1,0.2-0.2,0.2-0.3c0.1-0.1,0.1-0.3,0-0.4
		C61.2,6.1,61.1,6,61,6c-0.3,0-0.8,0.5-1.1,1.3h0l0.1-0.4C60,6.3,60,6,59.7,6c-0.3,0-0.8,0.3-1.2,0.8L58.6,7z M57.6,8.6
		c-0.2,0.2-0.5,0.4-0.5,0.4c-0.1,0-0.1-0.1,0-0.3c0.2-1,0.4-1.8,0.6-2.6h-0.1l-0.7,0.2c-0.1,0.5-0.2,1-0.3,1.4C56.3,8,55.5,9,55.2,9
		c-0.1,0-0.2-0.1-0.1-0.5c0.1-0.6,0.3-1.2,0.4-1.7C55.6,6.2,55.6,6,55.4,6c-0.3,0-0.8,0.3-1.3,0.8L54.2,7c0.2-0.2,0.4-0.3,0.5-0.3
		c0.1,0,0.1,0.1,0,0.3c-0.1,0.5-0.2,1-0.4,1.6c-0.2,0.9,0.1,1.1,0.3,1.1c0.2,0,0.4-0.1,0.6-0.2c0.3-0.2,0.7-0.6,1.2-1.2h0
		c0,0.2-0.1,0.4-0.1,0.6c-0.1,0.6,0,0.8,0.2,0.8c0.3,0,0.8-0.3,1.3-0.8L57.6,8.6z M51.4,9.3c-0.3,0-0.5-0.3-0.5-0.9
		c0-1.2,0.5-1.9,0.7-2c0.1,0,0.2,0,0.2,0c0.3,0,0.5,0.3,0.5,0.9c0,1.1-0.4,1.9-0.7,2C51.5,9.3,51.5,9.3,51.4,9.3 M51.1,9.6
		c0.5,0,1-0.2,1.3-0.5c0.6-0.5,0.8-1.2,0.8-1.9c0-0.8-0.4-1.2-1.1-1.2c-0.3,0-0.6,0.1-1,0.3C50.5,6.6,50,7.3,50,8.4
		C50,9,50.2,9.6,51.1,9.6 M50.2,4.3c-0.1,0.1-0.2,0.2-0.4,0.2h-3c-0.2,0-0.3,0-0.4-0.2h-0.2c-0.1,0.4-0.2,1-0.4,1.4h0.3
		c0.2-0.3,0.3-0.6,0.4-0.7c0.2-0.2,0.3-0.2,0.9-0.2h0.4l-0.7,3.8c-0.1,0.6-0.2,0.7-0.8,0.7l-0.1,0.2h2.4l0.1-0.2
		c-0.7,0-0.8-0.1-0.6-0.7l0.7-3.8h0.4c0.5,0,0.7,0,0.8,0.2C49.9,5.1,50,5.4,50,5.7l0.3,0c0.1-0.5,0.1-1.1,0.2-1.4H50.2z M41.2,6.1
		l-0.3,0.3l0,0.1h0.6c-0.1,0.8-0.2,1.5-0.4,2.5c-0.2,1.3-0.3,1.6-0.4,1.7c-0.1,0.1-0.2,0.2-0.3,0.2c-0.2,0-0.4-0.1-0.6-0.2
		c-0.1,0-0.1,0-0.2,0c-0.1,0.1-0.2,0.2-0.2,0.4c0,0.2,0.3,0.4,0.5,0.4c0.2,0,0.5-0.1,0.9-0.4c0.5-0.5,0.8-1,1.1-2.3
		c0.2-0.9,0.3-1.5,0.4-2.3l0.8-0.1l0.2-0.3h-0.9c0.2-1.5,0.4-1.7,0.6-1.7c0.2,0,0.3,0.1,0.5,0.4c0.1,0.1,0.1,0.1,0.2,0
		c0.1-0.1,0.2-0.2,0.3-0.4c0-0.2-0.2-0.4-0.5-0.4c-0.3,0-0.8,0.2-1.2,0.6C42,5,41.8,5.5,41.7,6.1H41.2z M40.1,8.6
		C39.9,8.8,39.6,9,39.6,9c0,0-0.1-0.1,0-0.3c0.3-1.5,0.6-2.9,0.9-4.4c0-0.2,0-0.3-0.1-0.3c-0.1,0-0.6,0.2-1.3,0.3l0,0.2l0.2,0
		c0.3,0,0.4,0.1,0.3,0.5c-0.2,1.2-0.5,2.4-0.7,3.6c-0.2,0.8,0,1,0.2,1c0.3,0,0.8-0.3,1.3-0.8L40.1,8.6z M36,9.3
		c-0.3,0-0.5-0.3-0.5-0.9c0-1.2,0.5-1.9,0.7-2c0.1,0,0.2,0,0.2,0c0.3,0,0.5,0.3,0.5,0.9c0,1.1-0.4,1.9-0.7,2
		C36.2,9.3,36.1,9.3,36,9.3 M35.7,9.6c0.5,0,1-0.2,1.3-0.5c0.6-0.5,0.8-1.2,0.8-1.9c0-0.8-0.4-1.2-1.1-1.2c-0.3,0-0.6,0.1-1,0.3
		c-0.6,0.3-1.2,1.1-1.2,2.1C34.6,9,34.8,9.6,35.7,9.6 M33.7,5.8c0-0.5,0.1-1,0.1-1.3c-0.2-0.1-0.8-0.2-1.4-0.2c-2,0-3.4,1.2-3.4,3.1
		c0,1.4,1,2.2,2.4,2.2c0.6,0,1.2-0.2,1.7-0.3c0-0.1,0-0.4,0-0.6l0.1-0.6c0.1-0.6,0.2-0.6,0.6-0.7l0.1-0.2h-2.2l-0.1,0.2
		c0.8,0.1,0.8,0.1,0.7,0.7l-0.1,0.7c-0.1,0.4-0.4,0.5-0.7,0.5c-0.9,0-1.5-0.8-1.5-1.9c0-1.5,1-2.7,2.2-2.7c0.7,0,1.2,0.3,1.2,1.2
		L33.7,5.8z M25.9,8.6C25.7,8.8,25.4,9,25.4,9c0,0-0.1-0.1,0-0.3c0.3-1.5,0.6-2.9,0.9-4.4c0-0.2,0-0.3-0.1-0.3
		c-0.1,0-0.6,0.2-1.3,0.3l0,0.2l0.2,0c0.3,0,0.4,0.1,0.3,0.5c-0.2,1.2-0.5,2.4-0.7,3.6c-0.2,0.8,0,1,0.2,1c0.3,0,0.8-0.3,1.3-0.8
		L25.9,8.6z M21.2,9C21.1,9,21,8.8,21,8.5c0-0.7,0.3-1.7,0.8-2c0.1-0.1,0.2-0.1,0.4-0.1c0.2,0,0.4,0.1,0.5,0.1
		c0,0.2-0.2,0.9-0.3,1.2C22.2,8.1,21.5,9,21.2,9 M23.6,8.5c-0.2,0.2-0.5,0.4-0.5,0.4c0,0-0.1-0.1,0-0.3c0.2-0.9,0.4-1.9,0.5-2.5l0,0
		c-0.1,0-0.2,0-0.4-0.1C22.9,6,22.8,6,22.6,6C22,6,21.4,6.3,21,6.7c-0.5,0.5-0.9,1.3-0.9,2c0,0.6,0.2,0.9,0.5,0.9
		c0.3,0,0.6-0.2,0.8-0.4C21.7,9,22,8.7,22.3,8.3h0l-0.1,0.5c-0.1,0.7,0,0.8,0.2,0.8c0.2,0,0.8-0.3,1.3-0.9L23.6,8.5z M19.2,8.6
		c-0.2,0.2-0.5,0.4-0.5,0.4c-0.1,0-0.1-0.1,0-0.3c0.2-1,0.4-1.8,0.6-2.6h-0.1l-0.7,0.2c-0.1,0.5-0.2,1-0.3,1.4C17.9,8,17.2,9,16.8,9
		c-0.1,0-0.2-0.1-0.1-0.5c0.1-0.6,0.3-1.2,0.4-1.7C17.2,6.2,17.2,6,17,6c-0.3,0-0.8,0.3-1.3,0.8L15.8,7c0.2-0.2,0.4-0.3,0.5-0.3
		c0.1,0,0.1,0.1,0,0.3c-0.1,0.5-0.2,1-0.4,1.6c-0.2,0.9,0.1,1.1,0.3,1.1c0.2,0,0.4-0.1,0.6-0.2c0.3-0.2,0.7-0.6,1.2-1.2h0
		c0,0.2-0.1,0.4-0.1,0.6c-0.1,0.6,0,0.8,0.2,0.8c0.3,0,0.8-0.3,1.3-0.8L19.2,8.6z M14.7,8.6c-0.2,0.2-0.4,0.3-0.5,0.3
		c-0.1,0-0.1-0.1,0-0.3c0.1-0.5,0.2-1,0.3-1.5c0.2-1,0-1.2-0.2-1.2c-0.2,0-0.4,0.1-0.6,0.2c-0.3,0.2-0.8,0.6-1.2,1.2h0l0.1-0.5
		C12.7,6.2,12.6,6,12.4,6c-0.3,0-0.7,0.3-1.2,0.8L11.3,7c0.2-0.2,0.4-0.3,0.5-0.3c0.1,0,0.1,0.1,0,0.3c-0.2,0.9-0.4,1.8-0.6,2.6
		l0.1,0.1c0.2-0.1,0.5-0.1,0.8-0.2c0.1-0.5,0.2-1,0.3-1.4c0.3-0.6,1.1-1.4,1.4-1.4c0.1,0,0.1,0.1,0,0.5c-0.1,0.6-0.3,1.1-0.4,1.7
		c-0.1,0.6,0,0.8,0.2,0.8c0.2,0,0.7-0.2,1.3-0.8L14.7,8.6z M10.2,8.6C10,8.8,9.8,8.9,9.7,8.9s-0.1-0.1,0-0.3c0.1-0.5,0.2-1,0.3-1.5
		c0.2-1,0-1.2-0.2-1.2C9.6,6,9.4,6.1,9.2,6.2C8.9,6.4,8.4,6.9,8,7.4h0l0.1-0.5C8.2,6.2,8.1,6,7.9,6C7.7,6,7.2,6.3,6.7,6.8L6.8,7
		C7,6.8,7.2,6.7,7.3,6.7c0.1,0,0.1,0.1,0,0.3C7.1,7.9,6.9,8.7,6.7,9.5l0.1,0.1C7,9.5,7.3,9.5,7.5,9.5C7.6,9,7.7,8.4,7.8,8
		c0.3-0.6,1.1-1.4,1.4-1.4c0.1,0,0.1,0.1,0,0.5C9.1,7.7,9,8.2,8.9,8.8c-0.1,0.6,0,0.8,0.2,0.8c0.2,0,0.7-0.2,1.3-0.8L10.2,8.6z
		 M4,7.4H2.8c0.3-0.6,0.7-1.2,1-1.8h0L4,7.4z M5.8,9.3C5.2,9.2,5.2,9.1,5.1,8.5c-0.2-1-0.4-2-0.5-3.1L4.4,4.3L4.1,4.4l-2.3,4
		c-0.4,0.7-0.5,0.8-1,0.8L0.8,9.5h1.7l0.1-0.2C1.9,9.2,1.9,9.1,2.1,8.7c0.1-0.3,0.3-0.7,0.5-1h1.5c0.1,0.4,0.1,0.7,0.1,1
		c0.1,0.4,0,0.5-0.5,0.5L3.7,9.5h2L5.8,9.3z"/>
</g>
</svg>
