<?xml version="1.0" encoding="utf-8"?>
<!-- Generator: Adobe Illustrator 19.1.0, SVG Export Plug-In . SVG Version: 6.00 Build 0)  -->
<svg version="1.1" id="Layer_1" xmlns="http://www.w3.org/2000/svg" xmlns:xlink="http://www.w3.org/1999/xlink" x="0px" y="0px"
	 viewBox="0 0 72 72" style="enable-background:new 0 0 72 72;" xml:space="preserve">
<style type="text/css">
	.st0{fill:#FFFFFF;}
	.st1{fill:#FFFFFE;}
	.st2{fill:#CF0A2C;}
	.st3{fill:#2E2A25;}
</style>
<g>
	<path class="st0" d="M10.6,16.4c0-2.7,0-5.3,0.1-8c-0.5,0-0.9,0-1.4,0c0,2.8,0,5.6,0,8.4c0,0.4-0.1,0.6-0.4,0.7
		c-0.4,0.1-0.7,0.2-1.1,0.3c0,0.4,0,0.8,0,1.2c0.4-0.2,0.9-0.3,1.3-0.5C10,18.2,10.6,17.5,10.6,16.4z"/>
	<path class="st0" d="M14.8,16.8c0.5-0.1,0.9-0.2,1.4-0.4c0-2.2,0.1-4.5,0.1-6.7c0-0.9-0.5-1.4-1.7-1.4c-0.4,0-0.7,0-1.1,0
		c-1.1,0-1.7,0.5-1.7,1.6c0,2.6-0.1,5.1-0.1,7.7c0.5-0.1,0.9-0.3,1.4-0.4c0-1.1,0-2.2,0-3.2c0.5-0.1,1.1-0.2,1.6-0.3
		C14.9,14.8,14.8,15.8,14.8,16.8z M13.3,12.9c0-1,0-2,0-2.9c0-0.3,0.2-0.5,0.6-0.5c0.1,0,0.3,0,0.4,0c0.4,0,0.6,0.1,0.6,0.5
		c0,0.9,0,1.9,0,2.8C14.3,12.8,13.8,12.9,13.3,12.9z"/>
	<path class="st0" d="M22,8.4c-0.5,0-0.9,0-1.4,0c-0.3,1-0.7,2.1-1,3.2c0,0,0,0,0,0c-0.3-1-0.7-2.1-1-3.2c-0.5,0-0.9,0-1.4,0
		c0.5,1.7,1.1,3.2,1.6,4.7c0,0.9,0,1.8-0.1,2.8c0.5-0.1,0.9-0.2,1.4-0.3c0-0.9,0-1.8,0.1-2.7C20.8,11.4,21.4,9.8,22,8.4z"/>
	<path class="st0" d="M26.5,11.9c0.6,0,1.2-0.1,1.7-0.1c0-0.2,0-0.4,0-0.7c-0.6,0-1.2,0.1-1.7,0.1c0-0.7,0-1.4,0-2.1
		c0.6,0,1.1,0,1.7,0c0-0.2,0-0.5,0-0.7c-1,0-2.1,0-3.1,0c0,2.1-0.1,4.3-0.1,6.4c0.5-0.1,1-0.1,1.4-0.2
		C26.5,13.7,26.5,12.8,26.5,11.9z"/>
	<path class="st0" d="M34,13.1c0-1.3,0-2.5,0-3.8c0-0.7-0.6-1-1.7-1c-0.4,0-0.8,0-1.2,0c-1.1,0-1.7,0.3-1.7,1c0,1.3,0,2.6-0.1,3.9
		c0,0.7,0.6,1,1.7,0.9c0.4,0,0.8,0,1.2-0.1C33.5,14.1,34,13.8,34,13.1z M31.4,13.6c-0.4,0-0.6-0.1-0.6-0.3c0-1.3,0-2.6,0.1-3.9
		C30.9,9.1,31,9,31.4,9c0.2,0,0.4,0,0.7,0c0.4,0,0.6,0.1,0.6,0.3c0,1.3,0,2.6,0,3.9c0,0.2-0.2,0.3-0.5,0.3
		C31.9,13.5,31.6,13.5,31.4,13.6z"/>
	<path class="st0" d="M40.1,13.2c0-1.3,0-2.5,0-3.8c0-0.7-0.6-1-1.7-1c-0.4,0-0.8,0-1.2,0c-1.1,0-1.7,0.3-1.7,1c0,1.2,0,2.5,0,3.8
		c0,0.6,0.6,1,1.7,1c0.4,0,0.8,0,1.2,0C39.5,14.1,40.1,13.9,40.1,13.2z M37.4,13.5c-0.4,0-0.6-0.1-0.6-0.3c0-1.3,0-2.6,0-3.8
		C36.8,9.1,37,9,37.4,9c0.2,0,0.4,0,0.7,0c0.4,0,0.6,0.1,0.6,0.3c0,1.3,0,2.6,0,3.9c0,0.2-0.2,0.3-0.5,0.3
		C37.9,13.5,37.7,13.5,37.4,13.5z"/>
	<path class="st0" d="M42.2,9c0,1.8,0.1,3.5,0.1,5.3c0.5,0,1,0.1,1.4,0.1c0-1.8-0.1-3.6-0.1-5.4c0.5,0,0.9,0,1.4,0
		c0-0.2,0-0.5,0-0.7c-1.4,0-2.8,0-4.1,0c0,0.2,0,0.4,0,0.6C41.3,9,41.8,9,42.2,9z"/>
	<path class="st0" d="M49.2,11.8c0.6-0.1,0.9-0.3,0.9-0.7c0-0.5,0-1,0-1.5c0-0.8-0.7-1.3-1.9-1.2c-0.8,0-1.5,0-2.3,0
		c0,2.1,0.1,4.2,0.1,6.3c1,0.1,1.9,0.2,2.9,0.4c1.1,0.2,1.6-0.1,1.6-0.8c0-0.6,0-1.1,0-1.7C50.4,12.1,50,11.9,49.2,11.8z M47.2,9.1
		c0.2,0,0.5,0,0.7,0c0.4,0,0.6,0.2,0.6,0.5c0,0.5,0,0.9,0,1.4c0,0.3-0.1,0.4-0.7,0.4c-0.2,0-0.4,0-0.6,0
		C47.3,10.6,47.3,9.8,47.2,9.1z M48.5,14.3c-0.4-0.1-0.8-0.1-1.2-0.2c0-0.7,0-1.4,0-2.1c0.3,0,0.5,0,0.8,0.1c0.6,0,0.9,0.2,0.9,0.5
		c0,0.5,0,0.9,0,1.4C49,14.3,48.8,14.3,48.5,14.3z"/>
	<path class="st0" d="M52.9,13.1c0.5,0.1,1.1,0.1,1.6,0.2c0,1,0,1.9,0.1,2.9c0.5,0.1,0.9,0.2,1.4,0.3c0-2.2-0.1-4.5-0.1-6.7
		c0-0.9-0.6-1.4-1.7-1.4c-0.4,0-0.7,0-1.1,0c-1.1,0-1.7,0.4-1.7,1.2c0,2,0.1,3.9,0.1,5.9c0.5,0.1,0.9,0.2,1.4,0.3
		C53,14.9,52.9,14,52.9,13.1z M52.8,9.7c0-0.3,0.2-0.4,0.6-0.4c0.1,0,0.3,0,0.4,0c0.4,0,0.6,0.2,0.6,0.5c0,0.9,0,1.7,0.1,2.6
		c-0.5-0.1-1.1-0.1-1.6-0.2C52.9,11.4,52.9,10.5,52.8,9.7z"/>
	<path class="st0" d="M60.3,16.7c-0.6-0.2-1.1-0.3-1.7-0.4c0-2.6-0.1-5.2-0.1-7.8c-0.5,0-0.9,0-1.4,0c0,2.8,0.1,5.6,0.1,8.4
		c1,0.3,2.1,0.6,3.1,0.9C60.4,17.4,60.4,17,60.3,16.7z"/>
	<path class="st0" d="M62.7,17.3c0-3,0-6,0-8.9c-0.5,0-0.9,0-1.4,0c0,3.2,0.1,6.4,0.1,9.6c1,0.3,2,0.7,3.1,1c0-0.4,0-0.8,0-1.2
		C63.8,17.7,63.2,17.5,62.7,17.3z"/>
	<path class="st0" d="M12.9,60.3c-0.6-0.1-1.2-0.2-1.8-0.3c0-1.2,0-2.4,0-3.6c0.6,0.2,1.2,0.3,1.8,0.5c0-0.4,0-0.7,0-1.1
		c-1.1-0.3-2.1-0.7-3.2-1.1c0,3.7,0,7.4,0,11.1c0.5,0,1,0,1.5,0c0-1.5,0-3.1,0-4.6c0.6,0.1,1.2,0.2,1.8,0.2
		C12.9,61,12.9,60.7,12.9,60.3z"/>
	<path class="st0" d="M17,56.9c-0.4-0.1-0.8-0.2-1.3-0.3c-1.2-0.3-1.7,0-1.7,1.2c0,2.1,0,4.2,0.1,6.4c0,1.1,0.6,1.6,1.8,1.6
		c0.4,0,0.8,0,1.2,0c1.2,0,1.8-0.5,1.8-1.4c0-1.8-0.1-3.7-0.1-5.5C18.8,57.8,18.2,57.2,17,56.9z M16.9,64.8c-0.3,0-0.5,0-0.8,0
		c-0.4,0-0.6-0.2-0.6-0.5c0-2.1-0.1-4.2-0.1-6.2c0-0.3,0.2-0.4,0.6-0.3c0.2,0.1,0.5,0.1,0.7,0.2c0.4,0.1,0.6,0.3,0.6,0.6
		c0,2,0.1,3.9,0.1,5.9C17.4,64.6,17.2,64.8,16.9,64.8z"/>
	<path class="st0" d="M23.3,58.2c0,2,0.1,4.1,0.1,6.1c0,0.3-0.2,0.5-0.7,0.5c-0.1,0-0.2,0-0.4,0c-0.5,0-0.7-0.2-0.7-0.5
		c0-2.1-0.1-4.2-0.1-6.4c-0.5-0.1-1-0.2-1.5-0.3c0,2.2,0.1,4.4,0.1,6.6c0,1,0.7,1.6,2.1,1.5c0.1,0,0.3,0,0.4,0
		c1.4,0,2.1-0.5,2.1-1.4c0-2-0.1-3.9-0.1-5.9C24.3,58.4,23.8,58.3,23.3,58.2z"/>
	<path class="st0" d="M29.3,59c0,1.1,0,2.2,0,3.3c-0.5-1.1-1.1-2.3-1.7-3.4c-0.5-0.1-1-0.1-1.5-0.2c0,2.4,0.1,4.7,0.1,7.1
		c0.5,0,1,0,1.5,0c0-1.5,0-3-0.1-4.5c0.6,1.1,1.1,2.1,1.6,3.2c0,0.4,0,0.9,0,1.3c0.5,0,1,0,1.5,0c0-2.2,0-4.4-0.1-6.6
		C30.3,59.1,29.8,59,29.3,59z"/>
	<path class="st0" d="M34.8,59.3c-0.9,0-1.7,0-2.6-0.1c0,2.2,0,4.4,0.1,6.6c1,0,1.9,0,2.9,0c1.2,0,1.8-0.3,1.8-0.9
		c0-1.4,0-2.9,0-4.3C36.9,59.7,36.2,59.3,34.8,59.3z M34.9,65c-0.4,0-0.7,0-1.1,0c0-1.6,0-3.3,0-4.9c0.3,0,0.7,0,1,0
		c0.5,0,0.7,0.2,0.7,0.5c0,1.4,0,2.8,0,4.1C35.4,64.9,35.2,65,34.9,65z"/>
	<path class="st0" d="M41.1,59.1c-0.4,0-0.7,0-1.1,0.1c-1.2,0.1-1.8,0.4-1.8,1.2c0,1.8,0,3.6,0,5.4c0.5,0,1,0,1.5,0
		c0-0.8,0-1.6,0-2.4c0.6,0,1.1,0,1.7,0c0,0.8,0,1.6,0,2.4c0.5,0,1,0,1.5,0c0-1.9,0.1-3.7,0.1-5.6C42.9,59.4,42.3,59,41.1,59.1z
		 M41.4,62.5c-0.6,0-1.1,0-1.7,0c0-0.7,0-1.5,0-2.2c0-0.3,0.2-0.4,0.7-0.4c0.1,0,0.3,0,0.4,0c0.4,0,0.7,0.1,0.6,0.4
		C41.4,61,41.4,61.8,41.4,62.5z"/>
	<path class="st0" d="M43.7,59.7c0.5,0,1-0.1,1.4-0.1c0,2.1-0.1,4.1-0.1,6.2c0.5,0,1,0,1.5,0c0-2.1,0.1-4.3,0.1-6.4
		c0.5-0.1,1-0.1,1.4-0.2c0-0.3,0-0.6,0-0.8c-1.4,0.2-2.9,0.4-4.4,0.6C43.7,59.2,43.7,59.4,43.7,59.7z"/>
	<path class="st0" d="M48.7,65.8c0.5,0,1,0,1.5,0c0.1-2.6,0.1-5.2,0.2-7.8c-0.5,0.1-1,0.2-1.5,0.3C48.8,60.7,48.8,63.2,48.7,65.8z"
		/>
	<path class="st0" d="M54.8,57c-0.4,0.1-0.8,0.2-1.3,0.3c-1.2,0.3-1.8,0.9-1.8,1.8c0,1.8-0.1,3.5-0.1,5.3c0,0.9,0.6,1.4,1.8,1.4
		c0.4,0,0.8,0,1.2,0c1.2,0,1.8-0.5,1.8-1.6c0-2,0.1-4.1,0.1-6.1C56.5,57.1,56,56.7,54.8,57z M54.9,64.3c0,0.3-0.2,0.5-0.5,0.5
		c-0.3,0-0.5,0-0.8,0c-0.4,0-0.6-0.1-0.6-0.4c0-1.9,0.1-3.8,0.1-5.7c0-0.3,0.2-0.5,0.6-0.5c0.2,0,0.5-0.1,0.7-0.1
		c0.4-0.1,0.6,0,0.6,0.3C55,60.3,55,62.3,54.9,64.3z"/>
	<path class="st0" d="M60.9,60.3c-0.5-1.6-1-3.1-1.5-4.6c-0.5,0.2-1,0.3-1.5,0.4c0,3.2-0.1,6.4-0.1,9.6c0.5,0,1,0,1.5,0
		c0-2.2,0-4.4,0.1-6.6c0.5,1.4,1,2.9,1.5,4.5c0,0.7,0,1.4,0,2.1c0.5,0,1,0,1.5,0c0-3.7,0-7.4,0-11.1c-0.5,0.2-1,0.3-1.4,0.5
		C60.9,56.9,60.9,58.6,60.9,60.3z"/>
</g>
<path class="st1" d="M36,17.1L36,17.1c-19.6,0-35.6,8.6-35.6,19.2C0.4,47,16.4,55.6,36,55.6S71.6,47,71.6,36.4
	C71.6,25.8,55.7,17.1,36,17.1 M36,53.9c-17.1,0-31-7.9-31-17.5c0-9.7,13.9-17.5,31-17.5c17.1,0,31,7.9,31,17.5
	C67,46.1,53.1,53.9,36,53.9z"/>
<path d="M36,16.1c-19.9,0-36,9.1-36,20.3c0,11.2,16.1,20.3,36,20.3s36-9.1,36-20.3C72,25.2,55.9,16.1,36,16.1z M36,53.3
	c-15.8,0-28.5-7.6-28.5-16.9C7.5,27,20.3,19.5,36,19.5c15.8,0,28.5,7.6,28.5,16.9C64.5,45.7,51.8,53.3,36,53.3z"/>
<path class="st2" d="M36,19.5C20.3,19.5,7.5,27,7.5,36.4c0,9.3,12.8,16.9,28.5,16.9c15.8,0,28.5-7.6,28.5-16.9
	C64.5,27,51.8,19.5,36,19.5"/>
<path class="st0" d="M43.6,45.4c-3.4-0.2-6.9-1.3-8.8-2.9c-0.4-0.3-0.7-1.1-1.2-1.2c-0.5-0.1-1.4,0.1-2.1,0.1
	c-2.6,0.1-5.4-0.1-7.7-0.1c3.6,5.1,12.9,6,21.7,5.5c2-0.1,4.1-0.4,6-0.7c2.1-0.4,4.4-1.2,6-2.3c0.4-0.2,1.5-1,1.3-1.2
	c-0.1-0.2-2.2-0.6-2.4-0.6c-0.2,0-0.6,0.4-1,0.6c-1.3,0.8-2.7,1.5-4.3,2l-0.2,0.1l-0.1,0C48.8,45.3,46.4,45.6,43.6,45.4"/>
<path class="st0" d="M56.2,35.5c0.3,0.3,0.5,0.8,0.8,1c0.7,0.2,1.7-0.2,2.3-0.1c-0.5-1-1.6-2.2-2.5-3.3c-0.5-0.6-0.9-1.3-2.1-1
	c0,0,0,0,0,0c-0.8,0.4-1.6,0.1-2.4-0.3c-0.3-0.1-0.6-0.2-0.9-0.3c-1.3-0.3-2.7-0.5-4-0.6l-1.1-0.1c-0.8-0.2-2.2-0.1-2.2-0.1
	s0,0.9-0.1,1.5C49.4,32.1,53.7,33,56.2,35.5"/>
<path class="st0" d="M36.1,40c2.7-0.3,6.2-1.1,6.9-3.3c0.3-0.8,0.2-1.9,0.2-2.8c0.1-2,0.1-3.5,0.1-6c0-1,0.1-2.2,0.7-2.5
	c0.6-0.2,1.7,0,2.5,0H49c0-0.4,0.2-1.2-0.1-1.4c-0.3-0.2-2.2-0.1-2.9-0.1H29c-0.8,0-2.6-0.2-2.9,0c-0.3,0.2-0.2,0.9-0.1,1.4
	c2.1,0.3,5.5-0.6,6.4,0.8c0.5,0.8,0.4,3.8,0.3,5.2c0,3.5,0.1,6.8-3,7v-0.3l-0.2-0.2c2.1-0.4,2-3.3,1.9-5.8c-3.7,1-6.9,2.4-8.1,5.9
	c0.3,0.1,0.8,0,1.1,0.2l-0.2,0.2v0.3c-2.6-0.1-5.3-0.6-5.7-2.8c-0.2-0.7,0.1-1.7,0.1-2.6c-1.5,0-3.2-0.1-4.8-0.1
	c-0.6,0-1.3-0.1-1.4,0.2c-0.2,0.6,1,0.9,1.3,1.2c0.3,0.3,0.7,0.7,0.9,1.2c0.4,0.7,0.5,1.8,1,2.4c1,1.3,3.9,1.7,5.8,2
	c2.4,0.3,4.8,0.3,7.4,0.3C31.2,40.3,33.7,40.3,36.1,40"/>
<path class="st3" d="M60.8,42.3L60.8,42.3c-0.1-0.1-0.7-0.2-1.1-0.3c-0.9-0.2-1.4-0.4-2.2-0.6c-0.3-0.1-0.9-0.3-1.1-0.3
	c-0.2,0-0.5,0.3-0.7,0.5c-0.8,0.5-1.7,1.1-2.5,1.4c-0.9,0.4-2.2,0.9-3.4,1.1c-5,0.8-10.7,0.2-13.9-2c0.1,0.1-0.7-0.4-0.6-0.6
	c0.1-0.1,0.8-0.1,1.1-0.2c1.9-0.3,3.3-0.7,4.6-1.4c1.7-0.9,2.9-1.9,3.2-4.3c0-0.5-0.2-1.3,0.1-1.4c0.2-0.2,1-0.1,1.2-0.1
	c2.9,0,5.7,0.5,7.9,1.8c0.4,0.2,0.8,0.6,1.2,0.8c0.5,0.4,0.8,1.2,1.4,1.4c0.5,0.2,1.2,0,1.7,0c0.6,0,1.1,0,1.6-0.1
	c0-0.4-0.4-0.7-0.6-0.8c0.7,0.1,1.1,0,2,0c-0.1-0.6-0.6-1-1-1.5c-0.8-0.9-1.5-1.8-2.3-2.9c-0.3-0.4-0.9-1.2-1.2-1.4
	c-0.4-0.1-1.1,0-1.7,0.2c-0.2,0-0.5,0.1-0.7,0.1c-0.4,0-0.9-0.2-1.5-0.4c-0.3-0.1-0.6-0.3-0.9-0.3c-1.3-0.3-2.8-0.5-4.1-0.6
	l-1.1-0.1c-1-0.1-2,0.1-2.2-0.3c-0.2-0.2,0-1,0-1.4c0-0.5,0-0.9,0-1.4h2.1c0.3,0,2,0.2,2.2,0c0.2-0.1-0.1-0.9,0.1-1
	c0.2-0.2,1,0.2,1.2,0c0.1-0.3,0.1-0.9,0.1-1.6c0-0.3,0.1-1.4,0-1.6c-0.1-0.2-0.7-0.1-1.1-0.1c-6.5,0.1-14.3,0.1-21,0
	c-1,0-1.9-0.2-2.7-0.1c-0.5,0.1-0.2,1.6-0.2,1.6s-0.4,0.1-0.5,0.2c-0.3,0.4,0,2.1,0,2.5h3c1,0,2.1-0.1,2.8,0.1
	c0.6,0.1,0.8,0.5,0.9,1c0.1,0.6,0.3,3,0.2,3.1c0,0-1.1,0.2-1.3,0.3c-1.1,0.3-2.2,0.7-3,1.1c-1.7,0.8-3.1,2-4.1,3.5
	c-0.1,0.1-0.7,1.3-0.8,1.4c-0.1,0-0.8-0.2-1-0.2c-0.5-0.2-1.3-0.8-1.5-1.1c-0.8-1-0.1-2.4-0.2-4.1c-1.6-0.1-3-0.1-4.8-0.1
	c-0.6,0-2.8-0.2-3,0c-0.3,0.3-0.1,1.6-0.1,1.6l-0.7,0.1c0,0-0.2,1.1,0.1,1.5c0.1,0.2,1,0.5,1.2,0.6c1.2,0.7,1.1,2.1,1.7,3.3
	c0.5,0.9,1.9,1.5,3,1.9c1.2,0.3,2.4,0.6,3.6,0.7c0.3,0,1-0.1,1.4,0.1c0.1,0.1,0.3,0.5,0.4,0.7c1.3,2,3.3,3.2,5.6,4.1
	c3.2,1.3,7,1.8,10.8,1.9c0.5,0,1.1,0,1.7,0.1C45.8,49,52,48,56.1,46.2c1.4-0.6,2.9-1.2,3.9-2.4C60.3,43.5,60.9,42.6,60.8,42.3
	 M44.2,30.8L44.2,30.8c0,0,1.5,0,2.2,0.1l1.1,0.1c1.3,0.1,2.7,0.3,4,0.6c0.3,0.1,0.6,0.2,0.9,0.3c0.7,0.3,1.6,0.7,2.4,0.3
	c0,0,0,0,0,0c1.2-0.3,1.6,0.3,2.1,1c0.9,1.1,2,2.3,2.5,3.3c-0.6-0.1-1.5,0.3-2.3,0.1c-0.4-0.1-0.6-0.7-0.8-1
	c-2.6-2.5-6.9-3.4-12.2-3.2C44.2,31.8,44.2,30.8,44.2,30.8z M31.3,32.1L31.3,32.1c0.2,2.4,0.2,5.2-1.7,5.8c0,0-0.1,0-0.1,0
	c-1.5,0.4-3.1,0.3-4.7,0.2l-0.7,0c0,0,0,0,0,0c-0.3,0-0.7,0-0.9-0.1C24.4,34.5,27.6,33,31.3,32.1z M21.2,40L21.2,40
	c-1.9-0.3-4.8-0.7-5.8-2c-0.5-0.6-0.6-1.6-1-2.4c-0.2-0.5-0.6-0.9-0.9-1.2c-0.3-0.3-1.5-0.6-1.3-1.2c0.1-0.3,0.8-0.2,1.4-0.2
	c1.6,0,3.3,0.1,4.8,0.1c0,1-0.2,1.9-0.1,2.6c0.5,2.2,3.2,2.7,5.7,2.8v0l0.7,0c1.6,0.1,3.2,0.1,4.8-0.3c3.1-0.2,2.9-3.5,3-7
	c0-1.4,0.2-4.4-0.3-5.2c-0.9-1.4-4.3-0.5-6.4-0.8c0-0.6-0.2-1.2,0.1-1.4c0.4-0.2,2.1,0,2.9,0h17.1c0.7,0,2.6-0.2,2.9,0.1
	c0.3,0.2,0.1,1,0.1,1.4h-2.5c-0.8,0-2-0.2-2.5,0c-0.6,0.2-0.7,1.4-0.7,2.5c0,2.5,0,4-0.1,6c0,0.9,0.1,2-0.2,2.8
	c-0.8,2.2-4.2,2.9-6.9,3.3c-2.4,0.3-4.9,0.3-7.4,0.3C26.1,40.3,23.7,40.3,21.2,40z M57.5,43.9c-1.6,1-4,1.9-6,2.3
	c-1.9,0.3-4,0.6-6,0.7c-8.8,0.5-18.1-0.4-21.7-5.5c2.2,0,5.1,0.2,7.7,0.1c0.7,0,1.7-0.3,2.1-0.1c0.5,0.1,0.8,0.9,1.2,1.2
	c1.9,1.6,5.4,2.7,8.8,2.9c2.8,0.2,5.2-0.1,7.3-0.7c0.1,0,0.2-0.1,0.3-0.1c1.6-0.5,3-1.2,4.3-2c0.3-0.2,0.7-0.6,1-0.6
	c0.2,0,2.2,0.4,2.4,0.6C59,42.9,57.9,43.6,57.5,43.9z"/>
</svg>
